<?xml version="1.0" encoding="iso-8859-1"?>
<!-- Generator: Adobe Illustrator 17.1.0, SVG Export Plug-In . SVG Version: 6.00 Build 0)  -->
<!DOCTYPE svg PUBLIC "-//W3C//DTD SVG 1.1//EN" "http://www.w3.org/Graphics/SVG/1.1/DTD/svg11.dtd">
<svg version="1.1" id="Capa_1" xmlns="http://www.w3.org/2000/svg" xmlns:xlink="http://www.w3.org/1999/xlink" x="0px" y="0px"
	 viewBox="0 0 442 442" style="enable-background:new 0 0 442 442;" xml:space="preserve">
<g>
	<path d="M402.198,158.125h-43.644V64.067c0-5.522-4.477-10-10-10H93.446c-5.523,0-10,4.478-10,10v94.057H39.802
		C17.855,158.125,0,175.979,0,197.927v180.006c0,5.522,4.477,10,10,10h83.446c5.523,0,10-4.478,10-10v-1.921h235.107v1.921
		c0,5.522,4.477,10,10,10H432c5.523,0,10-4.478,10-10V197.927C442,175.979,424.145,158.125,402.198,158.125z M103.446,74.067
		h235.107v84.057h-43.777v-43.707c0-5.523-4.477-10-10-10s-10,4.477-10,10v43.707H231v-43.707c0-5.523-4.477-10-10-10
		s-10,4.477-10,10v43.707h-43.777v-43.707c0-5.523-4.477-10-10-10s-10,4.477-10,10v43.707h-43.777V74.067z M338.554,304.752H103.446
		v-11.458c0-10.919,8.883-19.802,19.802-19.802h195.503c10.919,0,19.802,8.883,19.802,19.802V304.752z M103.446,356.012v-31.26
		h235.107v31.26H103.446z M422,367.933h-63.446v-74.639c0-21.947-17.855-39.802-39.802-39.802H123.249
		c-21.947,0-39.802,17.855-39.802,39.802v74.639H20V197.927c0-10.919,8.883-19.802,19.802-19.802h362.396
		c10.919,0,19.802,8.883,19.802,19.802V367.933z"/>
	<path d="M381.404,205.904c-5.79,0-10.5,4.71-10.5,10.5s4.71,10.5,10.5,10.5s10.5-4.71,10.5-10.5S387.193,205.904,381.404,205.904z"
		/>
	<path d="M341.404,205.904c-5.79,0-10.5,4.71-10.5,10.5s4.71,10.5,10.5,10.5s10.5-4.71,10.5-10.5S347.193,205.904,341.404,205.904z"
		/>
</g>
<g>
</g>
<g>
</g>
<g>
</g>
<g>
</g>
<g>
</g>
<g>
</g>
<g>
</g>
<g>
</g>
<g>
</g>
<g>
</g>
<g>
</g>
<g>
</g>
<g>
</g>
<g>
</g>
<g>
</g>
</svg>
